<mxfile host="app.diagrams.net" modified="2020-11-27T02:14:30.582Z" agent="5.0 (Windows NT 10.0; Win64; x64) AppleWebKit/537.36 (KHTML, like Gecko) Chrome/86.0.4240.198 Safari/537.36" etag="vHgDnCBvLjkqN2SmOlt-" version="13.10.1" type="github">
  <diagram id="DgriANRo6SjlQrBQB8I8" name="Page-1">
    <mxGraphModel dx="1704" dy="705" grid="1" gridSize="10" guides="1" tooltips="1" connect="1" arrows="1" fold="1" page="1" pageScale="1" pageWidth="827" pageHeight="1169" math="0" shadow="0">
      <root>
        <mxCell id="0" />
        <mxCell id="1" parent="0" />
        <mxCell id="86dVdtpe8MZ_GBPZOqXo-11" style="edgeStyle=orthogonalEdgeStyle;rounded=0;orthogonalLoop=1;jettySize=auto;html=1;" parent="1" source="86dVdtpe8MZ_GBPZOqXo-2" target="86dVdtpe8MZ_GBPZOqXo-38" edge="1">
          <mxGeometry relative="1" as="geometry">
            <mxPoint x="222.5" y="45" as="targetPoint" />
          </mxGeometry>
        </mxCell>
        <mxCell id="86dVdtpe8MZ_GBPZOqXo-2" value="Planejador" style="shape=umlActor;verticalLabelPosition=bottom;verticalAlign=top;html=1;outlineConnect=0;" parent="1" vertex="1">
          <mxGeometry x="40" y="75" width="30" height="60" as="geometry" />
        </mxCell>
        <mxCell id="86dVdtpe8MZ_GBPZOqXo-12" value="Aprovado?" style="rhombus;whiteSpace=wrap;html=1;" parent="1" vertex="1">
          <mxGeometry x="550" y="50" width="110" height="110" as="geometry" />
        </mxCell>
        <mxCell id="86dVdtpe8MZ_GBPZOqXo-14" value="Processo finalizado e pedido encerrado" style="rounded=1;whiteSpace=wrap;html=1;" parent="1" vertex="1">
          <mxGeometry x="740" y="75" width="120" height="60" as="geometry" />
        </mxCell>
        <mxCell id="86dVdtpe8MZ_GBPZOqXo-16" value="" style="endArrow=classic;html=1;exitX=1;exitY=0.5;exitDx=0;exitDy=0;entryX=0;entryY=0.5;entryDx=0;entryDy=0;" parent="1" source="86dVdtpe8MZ_GBPZOqXo-12" target="86dVdtpe8MZ_GBPZOqXo-14" edge="1">
          <mxGeometry relative="1" as="geometry">
            <mxPoint x="650" y="110" as="sourcePoint" />
            <mxPoint x="750" y="110" as="targetPoint" />
            <Array as="points">
              <mxPoint x="710" y="105" />
            </Array>
          </mxGeometry>
        </mxCell>
        <mxCell id="86dVdtpe8MZ_GBPZOqXo-17" value="Não" style="edgeLabel;resizable=0;html=1;align=center;verticalAlign=middle;" parent="86dVdtpe8MZ_GBPZOqXo-16" connectable="0" vertex="1">
          <mxGeometry relative="1" as="geometry" />
        </mxCell>
        <mxCell id="86dVdtpe8MZ_GBPZOqXo-23" value="" style="edgeStyle=orthogonalEdgeStyle;rounded=0;orthogonalLoop=1;jettySize=auto;html=1;" parent="1" source="86dVdtpe8MZ_GBPZOqXo-18" target="86dVdtpe8MZ_GBPZOqXo-22" edge="1">
          <mxGeometry relative="1" as="geometry" />
        </mxCell>
        <mxCell id="86dVdtpe8MZ_GBPZOqXo-18" value="Planejador faz o&lt;br&gt;&amp;nbsp;input dos dados no&lt;br&gt;&amp;nbsp;sistema Web" style="shape=trapezoid;perimeter=trapezoidPerimeter;whiteSpace=wrap;html=1;fixedSize=1;fillColor=#FFFFCC;size=20;" parent="1" vertex="1">
          <mxGeometry x="529.87" y="230" width="150.25" height="85" as="geometry" />
        </mxCell>
        <mxCell id="86dVdtpe8MZ_GBPZOqXo-19" value="" style="endArrow=classic;html=1;exitX=0.5;exitY=1;exitDx=0;exitDy=0;entryX=0.5;entryY=0;entryDx=0;entryDy=0;" parent="1" source="86dVdtpe8MZ_GBPZOqXo-12" target="86dVdtpe8MZ_GBPZOqXo-18" edge="1">
          <mxGeometry relative="1" as="geometry">
            <mxPoint x="487.5" y="265" as="sourcePoint" />
            <mxPoint x="567.5" y="265" as="targetPoint" />
            <Array as="points" />
          </mxGeometry>
        </mxCell>
        <mxCell id="86dVdtpe8MZ_GBPZOqXo-20" value="Sim" style="edgeLabel;resizable=0;html=1;align=center;verticalAlign=middle;" parent="86dVdtpe8MZ_GBPZOqXo-19" connectable="0" vertex="1">
          <mxGeometry relative="1" as="geometry" />
        </mxCell>
        <mxCell id="86dVdtpe8MZ_GBPZOqXo-25" value="" style="edgeStyle=orthogonalEdgeStyle;rounded=0;orthogonalLoop=1;jettySize=auto;html=1;" parent="1" source="86dVdtpe8MZ_GBPZOqXo-22" target="86dVdtpe8MZ_GBPZOqXo-24" edge="1">
          <mxGeometry relative="1" as="geometry" />
        </mxCell>
        <mxCell id="86dVdtpe8MZ_GBPZOqXo-22" value="Sistema Web faz a validação" style="rounded=1;whiteSpace=wrap;html=1;fillColor=#FFFFCC;" parent="1" vertex="1">
          <mxGeometry x="337.13" y="242.5" width="120" height="60" as="geometry" />
        </mxCell>
        <mxCell id="86dVdtpe8MZ_GBPZOqXo-27" value="" style="edgeStyle=orthogonalEdgeStyle;rounded=0;orthogonalLoop=1;jettySize=auto;html=1;" parent="1" source="86dVdtpe8MZ_GBPZOqXo-24" target="86dVdtpe8MZ_GBPZOqXo-26" edge="1">
          <mxGeometry relative="1" as="geometry" />
        </mxCell>
        <mxCell id="86dVdtpe8MZ_GBPZOqXo-24" value="Sistema Web gera a ordem de produção e disponbiliza a ordem para o operador" style="rounded=1;whiteSpace=wrap;html=1;fillColor=#FFFFCC;" parent="1" vertex="1">
          <mxGeometry x="155" y="235" width="135" height="75" as="geometry" />
        </mxCell>
        <mxCell id="86dVdtpe8MZ_GBPZOqXo-29" value="" style="edgeStyle=orthogonalEdgeStyle;rounded=0;orthogonalLoop=1;jettySize=auto;html=1;" parent="1" source="86dVdtpe8MZ_GBPZOqXo-26" target="86dVdtpe8MZ_GBPZOqXo-28" edge="1">
          <mxGeometry relative="1" as="geometry" />
        </mxCell>
        <mxCell id="86dVdtpe8MZ_GBPZOqXo-83" value="" style="edgeStyle=orthogonalEdgeStyle;rounded=0;orthogonalLoop=1;jettySize=auto;html=1;" parent="1" source="86dVdtpe8MZ_GBPZOqXo-26" target="86dVdtpe8MZ_GBPZOqXo-82" edge="1">
          <mxGeometry relative="1" as="geometry" />
        </mxCell>
        <mxCell id="86dVdtpe8MZ_GBPZOqXo-26" value="Sistema Web faz a baixa da peça no estoque" style="rounded=1;whiteSpace=wrap;html=1;fillColor=#FFFFCC;" parent="1" vertex="1">
          <mxGeometry x="208.38" y="382.5" width="120" height="60" as="geometry" />
        </mxCell>
        <mxCell id="86dVdtpe8MZ_GBPZOqXo-51" value="" style="edgeStyle=orthogonalEdgeStyle;rounded=0;orthogonalLoop=1;jettySize=auto;html=1;" parent="1" source="86dVdtpe8MZ_GBPZOqXo-28" target="86dVdtpe8MZ_GBPZOqXo-50" edge="1">
          <mxGeometry relative="1" as="geometry" />
        </mxCell>
        <mxCell id="86dVdtpe8MZ_GBPZOqXo-28" value="Sistema Web libera a peça para a produção" style="rounded=1;whiteSpace=wrap;html=1;fillColor=#FFFFCC;" parent="1" vertex="1">
          <mxGeometry x="390" y="382.5" width="120" height="60" as="geometry" />
        </mxCell>
        <mxCell id="86dVdtpe8MZ_GBPZOqXo-40" value="" style="edgeStyle=orthogonalEdgeStyle;rounded=0;orthogonalLoop=1;jettySize=auto;html=1;" parent="1" source="86dVdtpe8MZ_GBPZOqXo-34" target="86dVdtpe8MZ_GBPZOqXo-12" edge="1">
          <mxGeometry relative="1" as="geometry" />
        </mxCell>
        <mxCell id="86dVdtpe8MZ_GBPZOqXo-34" value="Cotação" style="shape=document;whiteSpace=wrap;html=1;boundedLbl=1;" parent="1" vertex="1">
          <mxGeometry x="370" y="70" width="105" height="70" as="geometry" />
        </mxCell>
        <mxCell id="86dVdtpe8MZ_GBPZOqXo-39" value="" style="edgeStyle=orthogonalEdgeStyle;rounded=0;orthogonalLoop=1;jettySize=auto;html=1;" parent="1" source="86dVdtpe8MZ_GBPZOqXo-38" target="86dVdtpe8MZ_GBPZOqXo-34" edge="1">
          <mxGeometry relative="1" as="geometry" />
        </mxCell>
        <mxCell id="86dVdtpe8MZ_GBPZOqXo-38" value="&lt;span&gt;Gera a cotação no EcoCalc&lt;/span&gt;" style="shape=trapezoid;perimeter=trapezoidPerimeter;whiteSpace=wrap;html=1;fixedSize=1;" parent="1" vertex="1">
          <mxGeometry x="155" y="75" width="130" height="60" as="geometry" />
        </mxCell>
        <mxCell id="86dVdtpe8MZ_GBPZOqXo-41" value="&lt;span&gt;Integração com o COH&lt;/span&gt;" style="ellipse;whiteSpace=wrap;html=1;aspect=fixed;" parent="1" vertex="1">
          <mxGeometry x="831.37" y="862" width="80" height="80" as="geometry" />
        </mxCell>
        <mxCell id="86dVdtpe8MZ_GBPZOqXo-46" value="&lt;div&gt;&lt;b&gt;Niveis e hierarquias&lt;/b&gt;&lt;/div&gt;&lt;div&gt;Estoque&lt;/div&gt;&lt;div&gt;Operador&lt;/div&gt;&lt;div&gt;Planejador&lt;/div&gt;&lt;div&gt;Qualidade (vai validar as dimensões da peça produzida)&lt;/div&gt;&lt;div&gt;Administrador (acesso global)&lt;/div&gt;" style="text;html=1;strokeColor=none;fillColor=none;align=center;verticalAlign=middle;whiteSpace=wrap;rounded=0;" parent="1" vertex="1">
          <mxGeometry x="10" y="219" width="150" height="96" as="geometry" />
        </mxCell>
        <mxCell id="86dVdtpe8MZ_GBPZOqXo-47" value="&lt;div&gt;&lt;b&gt;Validações:&lt;/b&gt;&lt;/div&gt;&lt;div&gt;Controle de Acesso&lt;/div&gt;&lt;div&gt;Código do material&lt;/div&gt;&lt;div&gt;Disponibilidade de estoque&lt;/div&gt;" style="text;html=1;strokeColor=none;fillColor=none;align=center;verticalAlign=middle;whiteSpace=wrap;rounded=0;" parent="1" vertex="1">
          <mxGeometry x="328.3800000000001" y="150" width="137.5" height="96" as="geometry" />
        </mxCell>
        <mxCell id="86dVdtpe8MZ_GBPZOqXo-54" value="" style="edgeStyle=orthogonalEdgeStyle;rounded=0;orthogonalLoop=1;jettySize=auto;html=1;" parent="1" source="86dVdtpe8MZ_GBPZOqXo-48" target="86dVdtpe8MZ_GBPZOqXo-55" edge="1">
          <mxGeometry relative="1" as="geometry">
            <mxPoint x="744.37" y="603" as="targetPoint" />
            <Array as="points">
              <mxPoint x="961" y="440" />
              <mxPoint x="754" y="440" />
            </Array>
          </mxGeometry>
        </mxCell>
        <mxCell id="86dVdtpe8MZ_GBPZOqXo-48" value="Operador fabrica o produto e volta a peça para o estoque" style="shape=hexagon;perimeter=hexagonPerimeter2;whiteSpace=wrap;html=1;fixedSize=1;" parent="1" vertex="1">
          <mxGeometry x="890" y="345" width="142" height="60" as="geometry" />
        </mxCell>
        <mxCell id="oZ5TsZF3-vU-ODnUJ564-1" value="" style="edgeStyle=orthogonalEdgeStyle;rounded=0;orthogonalLoop=1;jettySize=auto;html=1;" edge="1" parent="1" source="86dVdtpe8MZ_GBPZOqXo-50" target="86dVdtpe8MZ_GBPZOqXo-48">
          <mxGeometry relative="1" as="geometry" />
        </mxCell>
        <mxCell id="86dVdtpe8MZ_GBPZOqXo-50" value="Estoque valida a liberação e entrega o material ao operador" style="shape=trapezoid;perimeter=trapezoidPerimeter;whiteSpace=wrap;html=1;fixedSize=1;fillColor=#FFFFCC;" parent="1" vertex="1">
          <mxGeometry x="674.8699999999999" y="337.5" width="139.19" height="75" as="geometry" />
        </mxCell>
        <mxCell id="86dVdtpe8MZ_GBPZOqXo-57" value="" style="edgeStyle=orthogonalEdgeStyle;rounded=0;orthogonalLoop=1;jettySize=auto;html=1;" parent="1" source="86dVdtpe8MZ_GBPZOqXo-55" target="86dVdtpe8MZ_GBPZOqXo-56" edge="1">
          <mxGeometry relative="1" as="geometry" />
        </mxCell>
        <mxCell id="86dVdtpe8MZ_GBPZOqXo-55" value="Estoque valida e retorna o saldo da peça ao estoque" style="shape=trapezoid;perimeter=trapezoidPerimeter;whiteSpace=wrap;html=1;fixedSize=1;fillColor=#FFFFCC;" parent="1" vertex="1">
          <mxGeometry x="690.5" y="467" width="127.75" height="60" as="geometry" />
        </mxCell>
        <mxCell id="86dVdtpe8MZ_GBPZOqXo-65" value="" style="edgeStyle=orthogonalEdgeStyle;rounded=0;orthogonalLoop=1;jettySize=auto;html=1;" parent="1" source="0PlZqIxgki8eDSUPAcnw-1" target="86dVdtpe8MZ_GBPZOqXo-64" edge="1">
          <mxGeometry relative="1" as="geometry">
            <mxPoint x="720.12" y="807" as="sourcePoint" />
            <Array as="points">
              <mxPoint x="509" y="814" />
              <mxPoint x="705" y="814" />
              <mxPoint x="705" y="722" />
            </Array>
          </mxGeometry>
        </mxCell>
        <mxCell id="86dVdtpe8MZ_GBPZOqXo-77" style="edgeStyle=orthogonalEdgeStyle;rounded=0;orthogonalLoop=1;jettySize=auto;html=1;" parent="1" source="86dVdtpe8MZ_GBPZOqXo-56" target="0PlZqIxgki8eDSUPAcnw-1" edge="1">
          <mxGeometry relative="1" as="geometry">
            <mxPoint x="650.07" y="747" as="targetPoint" />
          </mxGeometry>
        </mxCell>
        <mxCell id="86dVdtpe8MZ_GBPZOqXo-56" value="Sistema Web faz a adição do material&amp;nbsp; em estoque e valida se voltou conforme esperado, e atualiza o DOH" style="rounded=1;whiteSpace=wrap;html=1;fillColor=#FFFFCC;" parent="1" vertex="1">
          <mxGeometry x="684.87" y="577" width="138.99" height="90" as="geometry" />
        </mxCell>
        <mxCell id="86dVdtpe8MZ_GBPZOqXo-61" value="" style="edgeStyle=orthogonalEdgeStyle;rounded=0;orthogonalLoop=1;jettySize=auto;html=1;" parent="1" source="86dVdtpe8MZ_GBPZOqXo-41" target="86dVdtpe8MZ_GBPZOqXo-60" edge="1">
          <mxGeometry relative="1" as="geometry">
            <mxPoint x="1045.69" y="622" as="sourcePoint" />
          </mxGeometry>
        </mxCell>
        <mxCell id="86dVdtpe8MZ_GBPZOqXo-69" value="" style="edgeStyle=orthogonalEdgeStyle;rounded=0;orthogonalLoop=1;jettySize=auto;html=1;" parent="1" source="86dVdtpe8MZ_GBPZOqXo-60" target="86dVdtpe8MZ_GBPZOqXo-68" edge="1">
          <mxGeometry relative="1" as="geometry" />
        </mxCell>
        <mxCell id="86dVdtpe8MZ_GBPZOqXo-60" value="Gera a NF (invoice)" style="whiteSpace=wrap;html=1;rounded=1;fillColor=#FFFFCC;" parent="1" vertex="1">
          <mxGeometry x="945.8749999999999" y="712" width="120" height="60" as="geometry" />
        </mxCell>
        <mxCell id="86dVdtpe8MZ_GBPZOqXo-64" value="&lt;span&gt;Integração com o DOH&lt;/span&gt;" style="ellipse;whiteSpace=wrap;html=1;aspect=fixed;" parent="1" vertex="1">
          <mxGeometry x="831.37" y="682" width="80" height="80" as="geometry" />
        </mxCell>
        <mxCell id="86dVdtpe8MZ_GBPZOqXo-66" value="&lt;div&gt;&lt;b&gt;Validações:&lt;/b&gt;&lt;/div&gt;&lt;div&gt;Controle de Acesso&lt;/div&gt;&lt;div&gt;Controle de Estoque&lt;/div&gt;&lt;div&gt;Gera alerta em caso de divergência&lt;/div&gt;" style="text;html=1;strokeColor=none;fillColor=none;align=center;verticalAlign=middle;whiteSpace=wrap;rounded=0;" parent="1" vertex="1">
          <mxGeometry x="827.62" y="571" width="137.5" height="96" as="geometry" />
        </mxCell>
        <mxCell id="86dVdtpe8MZ_GBPZOqXo-68" value="&lt;span&gt;Finaliza o processo&lt;/span&gt;" style="ellipse;whiteSpace=wrap;html=1;rounded=1;fillColor=#FFFFCC;" parent="1" vertex="1">
          <mxGeometry x="1126.3849999999998" y="702" width="120" height="80" as="geometry" />
        </mxCell>
        <mxCell id="86dVdtpe8MZ_GBPZOqXo-71" value="&lt;h1&gt;SKF - Controle de Estoque&amp;nbsp;&lt;/h1&gt;" style="text;html=1;strokeColor=none;fillColor=none;spacing=5;spacingTop=-20;whiteSpace=wrap;overflow=hidden;rounded=0;" parent="1" vertex="1">
          <mxGeometry x="10" y="10" width="580" height="40" as="geometry" />
        </mxCell>
        <mxCell id="86dVdtpe8MZ_GBPZOqXo-74" value="&lt;div&gt;&lt;b&gt;Ajuste de uso do material&lt;/b&gt;&lt;/div&gt;" style="text;html=1;strokeColor=none;fillColor=none;align=center;verticalAlign=middle;whiteSpace=wrap;rounded=0;" parent="1" vertex="1">
          <mxGeometry x="560" y="449" width="137.5" height="96" as="geometry" />
        </mxCell>
        <mxCell id="86dVdtpe8MZ_GBPZOqXo-75" value="&lt;span&gt;Obs.: As vezes o material pode acabar durante a fabricação&lt;/span&gt;" style="text;html=1;strokeColor=none;fillColor=none;align=center;verticalAlign=middle;whiteSpace=wrap;rounded=0;fontStyle=1" parent="1" vertex="1">
          <mxGeometry x="818.25" y="449" width="137.5" height="96" as="geometry" />
        </mxCell>
        <mxCell id="86dVdtpe8MZ_GBPZOqXo-78" style="edgeStyle=orthogonalEdgeStyle;rounded=0;orthogonalLoop=1;jettySize=auto;html=1;entryX=0;entryY=0.5;entryDx=0;entryDy=0;" parent="1" source="0PlZqIxgki8eDSUPAcnw-1" target="86dVdtpe8MZ_GBPZOqXo-41" edge="1">
          <mxGeometry relative="1" as="geometry">
            <mxPoint x="720.12" y="807" as="sourcePoint" />
            <Array as="points">
              <mxPoint x="509" y="814" />
              <mxPoint x="705" y="814" />
              <mxPoint x="705" y="902" />
            </Array>
          </mxGeometry>
        </mxCell>
        <mxCell id="86dVdtpe8MZ_GBPZOqXo-79" value="&lt;b&gt;Obs.: O COH efetua o registro da pedido&lt;/b&gt;" style="text;html=1;strokeColor=none;fillColor=none;align=center;verticalAlign=middle;whiteSpace=wrap;rounded=0;" parent="1" vertex="1">
          <mxGeometry x="800.43" y="932" width="140.25" height="70" as="geometry" />
        </mxCell>
        <mxCell id="86dVdtpe8MZ_GBPZOqXo-80" value="&lt;b&gt;Obs.: a correlação da peça com o DOH é através do código TPU&lt;/b&gt;" style="text;html=1;strokeColor=none;fillColor=none;align=center;verticalAlign=middle;whiteSpace=wrap;rounded=0;" parent="1" vertex="1">
          <mxGeometry x="797.99" y="752" width="145.12" height="70" as="geometry" />
        </mxCell>
        <mxCell id="86dVdtpe8MZ_GBPZOqXo-81" value="&lt;b&gt;o comando da NF é efetuado no DOH (dá um ok) mas a NF é gerada pelo COH&lt;/b&gt;" style="text;html=1;strokeColor=none;fillColor=none;align=center;verticalAlign=middle;whiteSpace=wrap;rounded=0;" parent="1" vertex="1">
          <mxGeometry x="1009.87" y="802" width="140.25" height="70" as="geometry" />
        </mxCell>
        <mxCell id="86dVdtpe8MZ_GBPZOqXo-82" value="Sistema Web gera as etiquetas" style="whiteSpace=wrap;html=1;rounded=1;fillColor=#FFFFCC;" parent="1" vertex="1">
          <mxGeometry x="203.36999999999998" y="490" width="130.01" height="65" as="geometry" />
        </mxCell>
        <mxCell id="86dVdtpe8MZ_GBPZOqXo-84" value="&lt;b&gt;O estoque usa a etiqueta para saber a peça que ele pega no estoque, o estoquista escolhe o material a ser usado&lt;/b&gt;" style="text;html=1;strokeColor=none;fillColor=none;align=center;verticalAlign=middle;whiteSpace=wrap;rounded=0;" parent="1" vertex="1">
          <mxGeometry x="56" y="457.5" width="137.5" height="130" as="geometry" />
        </mxCell>
        <mxCell id="0PlZqIxgki8eDSUPAcnw-1" value="&lt;span&gt;O sistema avisa o planejador que o pedido foi produzido, e aguarda o OK (do planejador e do estoque)&amp;nbsp; para fazer as atualizações no DOH e COH&lt;/span&gt;" style="rounded=1;whiteSpace=wrap;html=1;fillColor=#FFFFCC;fontStyle=0" parent="1" vertex="1">
          <mxGeometry x="400" y="576" width="208.5" height="92" as="geometry" />
        </mxCell>
        <mxCell id="J5aFhBfNhDGVJgvYVW8j-1" value="&lt;b&gt;Anexa o documento gerado pelo EcoCalc&lt;/b&gt;" style="text;html=1;strokeColor=none;fillColor=none;align=center;verticalAlign=middle;whiteSpace=wrap;rounded=0;" parent="1" vertex="1">
          <mxGeometry x="680.12" y="207.5" width="137.5" height="130" as="geometry" />
        </mxCell>
      </root>
    </mxGraphModel>
  </diagram>
</mxfile>
